# xmcd
#
# Track frame offsets: 
#        150
#        13037
#        27595
#        40302
#        64680
#        77657
#        89302
#        101672
#        112602
#        131670
#        145505
#        158400
#        176222
#        190960
#
# Disc length: 2709 seconds
#
# Revision: 2
# Processed by: cddbd v1.5.2PL0 Copyright (c) Steve Scherf et al.
# Submitted via: ExactAudioCopyFreeDBPlugin 1.0
#
DISCID=ae0a930e
DTITLE=Various Artist - Feelin' the Blues
DYEAR=1993
DGENRE=Blues
TTITLE0=Big Joe Turner - Rock Me, Momma
TTITLE1=Muddy Waters - Good Morning Little School Girl
TTITLE2=Howlin' Wolf - Tell Me What I've Done
TTITLE3=B.B. King - The Thrill is Gone
TTITLE4=T-Bone Walker - Why My Baby
TTITLE5=Albert Collins - Snow-Cone II
TTITLE6=Buddy Guy - Keep it to Myself
TTITLE7=T-Bone Walker - Stormy Monday
TTITLE8=B.B. King - I Want You So Bad
TTITLE9=Howlin' Wolf - Three Hundred Pounds of Joy
TTITLE10=Muddy Waters - Got My Mojo Workin'
TTITLE11=Buddy Guy - Worried Mind
TTITLE12=Albert Collins - Dyin' Flu
TTITLE13=Big Joe Turner - Doggin' the Dog
EXTD=
EXTT0=Joe Turner\n
EXTT1=Muddy Waters\n
EXTT2=Howlin' Wolf\n
EXTT3=B.B. King\n
EXTT4=T-Bone Walker\n
EXTT5=Albert Collins\n
EXTT6=Buddy Guy\n
EXTT7=T-Bone Walker\n
EXTT8=B.B. King\n
EXTT9=Howlin' Wolf\n
EXTT10=Muddy Waters\n
EXTT11=Buddy Guy\n
EXTT12=Albert Collins\n
EXTT13=Joe Turner\n
PLAYORDER=
